<?xml version="1.0" encoding="UTF-8" standalone="no"?>
<!DOCTYPE svg PUBLIC "-//W3C//DTD SVG 1.1//EN" "http://www.w3.org/Graphics/SVG/1.1/DTD/svg11.dtd">
<svg width="70px" height="70px" version="1.1" xmlns="http://www.w3.org/2000/svg" xmlns:xlink="http://www.w3.org/1999/xlink" xml:space="preserve" xmlns:serif="http://www.serif.com/" style="fill-rule:evenodd;clip-rule:evenodd;stroke-linejoin:round;stroke-miterlimit:2;">
    <path d="M45.251,10.251l14.498,0l0,14.498l10.251,10.251l-10.251,10.251l0,14.498l-14.498,0l-10.251,10.251l-10.251,-10.251l-14.498,0l0,-14.498l-10.251,-10.251l10.251,-10.251l0,-14.498l14.498,0l10.251,-10.251l10.251,10.251Zm-10.251,9.9c8.196,0 14.849,6.653 14.849,14.849c0,8.196 -6.653,14.849 -14.849,14.849c-8.196,0 -14.849,-6.653 -14.849,-14.849c0,-8.196 6.653,-14.849 14.849,-14.849Zm0,4.351c5.794,0 10.498,4.704 10.498,10.498c0,5.794 -4.704,10.498 -10.498,10.498c-5.794,0 -10.498,-4.704 -10.498,-10.498c0,-5.794 4.704,-10.498 10.498,-10.498Z" style="fill:rgb(208,0,0);"/>
</svg>
